# 3ds Max Wavefront OBJ Exporter v0.97b - (c)2007 guruware
# File Created: 24.10.2019 11:32:24

#
# object Box009
#

v  77.2838 0.5655 -30.7626
v  77.2838 0.5655 -36.3839
v  94.5422 0.0000 -36.3839
v  94.5422 0.0000 -30.7626
v  2.4791 279.7407 -30.7626
v  19.7375 279.1751 -30.7626
v  19.7375 279.1751 -36.3839
v  2.4791 279.7407 -36.3839
v  77.2838 0.5655 36.3838
v  77.2838 0.5655 30.7625
v  94.5422 0.0000 30.7625
v  94.5422 0.0000 36.3838
v  2.4791 279.7407 36.3838
v  19.7375 279.1751 36.3838
v  19.7375 279.1751 30.7625
v  2.4791 279.7407 30.7625
v  30.9307 228.4221 31.2200
v  17.4109 228.4221 31.2200
v  17.4109 228.4221 -31.2201
v  30.9307 228.4221 -31.2201
v  17.4109 232.9934 31.2200
v  17.4109 232.9934 -31.2201
v  30.9307 232.9934 31.2200
v  30.9307 232.9934 -31.2201
v  42.4366 185.4814 31.2200
v  28.9169 185.4814 31.2200
v  28.9169 185.4814 -31.2201
v  42.4366 185.4814 -31.2201
v  28.9169 190.0527 31.2200
v  28.9169 190.0527 -31.2201
v  42.4366 190.0527 31.2200
v  42.4366 190.0527 -31.2201
v  53.9425 142.5406 31.2200
v  40.4228 142.5406 31.2200
v  40.4228 142.5406 -31.2201
v  53.9425 142.5406 -31.2201
v  40.4228 147.1120 31.2200
v  40.4228 147.1120 -31.2201
v  53.9425 147.1120 31.2200
v  53.9426 147.1120 -31.2201
v  65.4485 99.6000 31.2200
v  51.9287 99.6000 31.2200
v  51.9287 99.6000 -31.2201
v  65.4485 99.6000 -31.2201
v  51.9287 104.1713 31.2200
v  51.9287 104.1713 -31.2201
v  65.4485 104.1713 31.2200
v  65.4485 104.1713 -31.2201
v  76.9544 56.6592 31.2200
v  63.4347 56.6592 31.2200
v  63.4347 56.6592 -31.2201
v  76.9544 56.6592 -31.2201
v  63.4347 61.2306 31.2200
v  63.4347 61.2306 -31.2201
v  76.9544 61.2306 31.2200
v  76.9544 61.2306 -31.2201
v  88.4603 13.7185 31.2200
v  74.9406 13.7185 31.2200
v  74.9406 13.7185 -31.2201
v  88.4603 13.7185 -31.2201
v  74.9406 18.2899 31.2200
v  74.9406 18.2899 -31.2201
v  88.4603 18.2899 31.2200
v  88.4603 18.2899 -31.2201
v  45.2815 145.9943 37.6708
v  45.2815 149.0318 37.6708
v  -1.5322 149.0319 38.6742
v  -1.5322 145.9942 38.6742
v  45.2815 145.9943 36.6482
v  -1.5322 145.9942 37.6515
v  -1.5322 149.0319 37.6515
v  45.2815 149.0318 36.6482
v  -46.3860 149.0547 37.6708
v  -46.3860 146.0171 37.6708
v  1.6147 146.0171 37.4934
v  1.6147 149.0547 37.4934
v  -46.3860 149.0547 36.6482
v  1.6147 149.0547 36.4707
v  1.6147 146.0171 36.4707
v  -46.3860 146.0171 36.6482
v  -77.2838 -1.7554 30.7626
v  -77.2838 -1.7554 36.3839
v  -94.5422 -2.3209 36.3839
v  -94.5422 -2.3209 30.7626
v  -2.6526 276.9330 30.7626
v  -19.7374 276.8542 30.7626
v  -19.7374 276.8542 36.3839
v  -2.6526 276.9330 36.3839
v  -77.2838 -1.7554 -36.3839
v  -77.2838 -1.7554 -30.7626
v  -94.5422 -2.3209 -30.7626
v  -94.5422 -2.3209 -36.3839
v  -2.6526 276.9330 -36.3839
v  -19.7374 276.8542 -36.3839
v  -19.7374 276.8542 -30.7626
v  -2.6526 276.9330 -30.7626
v  -30.3602 221.2449 31.0641
v  -27.8348 223.7702 31.0641
v  -27.8348 223.7702 -31.0641
v  -30.3602 221.2449 -31.0641
v  -24.3851 222.8459 31.0641
v  -24.3851 222.8459 -31.0641
v  -23.4608 219.3962 31.0641
v  -23.4608 219.3962 -31.0641
v  -25.9861 216.8708 31.0641
v  -25.9861 216.8708 -31.0641
v  -29.4358 217.7952 31.0641
v  -29.4358 217.7952 -31.0641
v  -43.6983 171.4664 31.0641
v  -41.1730 173.9917 31.0641
v  -41.1730 173.9917 -31.0641
v  -43.6983 171.4664 -31.0641
v  -37.7232 173.0674 31.0641
v  -37.7232 173.0674 -31.0641
v  -36.7989 169.6177 31.0641
v  -36.7989 169.6177 -31.0641
v  -39.3243 167.0923 31.0641
v  -39.3243 167.0923 -31.0641
v  -42.7740 168.0167 31.0641
v  -42.7740 168.0166 -31.0641
v  -57.0364 121.6878 31.0641
v  -54.5111 124.2131 31.0641
v  -54.5111 124.2131 -31.0641
v  -57.0364 121.6878 -31.0641
v  -51.0614 123.2888 31.0641
v  -51.0614 123.2888 -31.0641
v  -50.1370 119.8391 31.0641
v  -50.1370 119.8391 -31.0641
v  -52.6624 117.3137 31.0641
v  -52.6624 117.3137 -31.0641
v  -56.1121 118.2381 31.0641
v  -56.1121 118.2381 -31.0641
v  -70.3746 71.9092 31.0641
v  -67.8492 74.4345 31.0641
v  -67.8492 74.4345 -31.0641
v  -70.3746 71.9092 -31.0641
v  -64.3995 73.5102 31.0641
v  -64.3995 73.5102 -31.0641
v  -63.4752 70.0605 31.0641
v  -63.4752 70.0605 -31.0641
v  -66.0005 67.5351 31.0641
v  -66.0005 67.5351 -31.0641
v  -69.4502 68.4595 31.0641
v  -69.4502 68.4595 -31.0641
v  -83.7127 22.1306 31.0641
v  -81.1873 24.6560 31.0641
v  -81.1873 24.6560 -31.0641
v  -83.7127 22.1306 -31.0641
v  -77.7376 23.7316 31.0641
v  -77.7376 23.7316 -31.0641
v  -76.8133 20.2819 31.0641
v  -76.8133 20.2819 -31.0641
v  -79.3387 17.7565 31.0641
v  -79.3387 17.7565 -31.0641
v  -82.7884 18.6809 31.0641
v  -82.7884 18.6809 -31.0641
v  22.3461 275.0055 40.1928
v  22.3461 280.8977 40.1928
v  -25.6711 280.8977 40.1928
v  -25.6711 275.0055 40.1928
v  22.3461 275.0055 -40.1928
v  -25.6711 275.0055 -40.1928
v  -25.6711 280.8977 -40.1928
v  22.3461 280.8977 -40.1928
v  45.2815 145.9943 -36.2951
v  45.2815 149.0318 -36.2951
v  -1.5322 149.0319 -36.5931
v  -1.5322 145.9942 -36.5931
v  45.2815 145.9943 -37.3178
v  -1.5322 145.9942 -37.6158
v  -1.5322 149.0319 -37.6158
v  45.2815 149.0318 -37.3178
v  -46.3859 149.0547 -36.2951
v  -46.3860 146.0171 -36.2951
v  1.6148 146.0171 -37.6886
v  1.6147 149.0547 -37.6886
v  -46.3859 149.0547 -37.3178
v  1.6147 149.0547 -38.7112
v  1.6147 146.0171 -38.7112
v  -46.3860 146.0171 -37.3178
# 180 vertices

vn 0.1740 -0.9848 -0.0000
vn -0.1738 0.9848 -0.0000
vn -0.1734 0.9848 -0.0000
vn 0.0000 0.0000 1.0000
vn 0.9658 0.2593 -0.0000
vn 0.9658 0.2594 -0.0000
vn 0.0000 0.0000 -1.0000
vn -0.9661 -0.2580 -0.0000
vn -0.9658 -0.2594 -0.0000
vn 0.1837 -0.9830 -0.0000
vn 0.1836 -0.9830 -0.0000
vn -0.8843 0.4669 -0.0000
vn -0.8835 0.4684 -0.0000
vn -0.1836 0.9830 -0.0000
vn -0.1837 0.9830 -0.0000
vn 0.8835 -0.4684 -0.0000
vn 0.1839 -0.9829 -0.0000
vn -0.1839 0.9829 -0.0000
vn 0.8843 -0.4669 -0.0000
vn 0.1830 -0.9831 -0.0000
vn -0.8839 0.4677 -0.0000
vn -0.1830 0.9831 -0.0000
vn 0.8838 -0.4679 -0.0000
vn 0.1839 -0.9830 -0.0000
vn 0.1835 -0.9830 -0.0000
vn -0.1835 0.9830 -0.0000
vn -0.1831 0.9831 -0.0000
vn -0.1839 0.9830 -0.0000
vn 0.8836 -0.4682 -0.0000
vn 0.1831 -0.9831 -0.0000
vn -0.8841 0.4674 -0.0000
vn -0.1846 0.9828 -0.0000
vn 0.8841 -0.4674 -0.0000
vn 0.8837 -0.4680 -0.0000
vn 0.0469 -0.0244 0.9986
vn -0.0469 0.0244 -0.9986
vn -0.0473 0.0244 -0.9986
vn -0.1840 0.9829 -0.0000
vn 0.0092 -0.0046 0.9999
vn 0.0076 -0.0031 1.0000
vn 0.0080 -0.0031 1.0000
vn 0.0084 -0.0031 1.0000
vn -0.0076 0.0031 -1.0000
vn -0.0080 0.0031 -1.0000
vn -0.0084 0.0046 -1.0000
vn -0.0076 0.0046 -1.0000
vn -0.1832 0.9831 -0.0000
vn 0.1938 -0.9810 -0.0000
vn 0.1923 -0.9813 -0.0000
vn -0.1850 0.9827 -0.0000
vn -0.1847 0.9828 -0.0000
vn -0.6638 0.7479 -0.0000
vn -0.6645 0.7473 -0.0000
vn 0.6636 -0.7481 -0.0000
vn 0.6647 -0.7471 -0.0000
vn -0.1854 0.9827 -0.0000
vn 0.6638 -0.7479 -0.0000
vn -0.7777 0.6287 -0.0000
vn -0.2587 0.9660 -0.0000
vn 0.3595 0.9332 -0.0000
vn 0.7777 -0.6287 -0.0000
vn 0.2587 -0.9660 -0.0000
vn -0.3600 -0.9330 -0.0000
vn -0.3590 -0.9334 -0.0000
vn -0.7788 0.6273 -0.0000
vn 0.7777 -0.6286 -0.0000
vn -0.3606 -0.9327 -0.0000
vn -0.3595 -0.9332 -0.0000
vn -0.7776 0.6288 -0.0000
vn 0.3601 0.9329 -0.0000
vn 0.3594 0.9332 -0.0000
vn 0.7776 -0.6288 -0.0000
vn -0.3594 -0.9332 -0.0000
vn -0.3601 -0.9329 -0.0000
vn -0.7783 0.6279 -0.0000
vn 0.7783 -0.6279 -0.0000
vn -0.2594 0.9658 -0.0000
vn 0.3593 0.9332 -0.0000
vn 0.7780 -0.6283 -0.0000
vn -0.8842 0.4670 -0.0000
vn 0.8827 -0.4699 -0.0000
vn 0.8842 -0.4670 -0.0000
vn -0.0141 0.0061 0.9999
vn -0.0137 0.0076 0.9999
vn -0.0141 0.0076 0.9999
vn 0.0137 -0.0061 -0.9999
vn 0.0137 -0.0076 -0.9999
vn 0.0141 -0.0076 -0.9999
vn 0.0641 -0.0336 0.9974
vn 0.0637 -0.0336 0.9974
vn -0.0641 0.0336 -0.9974
vn -0.0637 0.0336 -0.9974
vn -0.0633 0.0336 -0.9974
vn -0.0626 0.0336 -0.9975
vn 0.8843 -0.4670 -0.0000
vn 0.1840 -0.9829 -0.0000
# 96 vertex normals

vt 0.7515 0.7876 0.0000
vt 0.7515 0.7607 0.0000
vt 0.8091 0.7607 0.0000
vt 0.8091 0.7876 0.0000
vt 0.9312 0.9081 0.0000
vt 0.9888 0.9081 0.0000
vt 0.9888 0.9351 0.0000
vt 0.9312 0.9351 0.0000
vt 0.0604 0.0098 0.0000
vt 0.1175 0.0005 0.0000
vt 0.1175 0.5371 0.0000
vt 0.0604 0.5464 0.0000
vt 0.2677 0.0097 0.0000
vt 0.2944 0.0097 0.0000
vt 0.2944 0.5463 0.0000
vt 0.2677 0.5463 0.0000
vt 0.1203 0.0005 0.0000
vt 0.1774 0.0098 0.0000
vt 0.1774 0.5464 0.0000
vt 0.1203 0.5371 0.0000
vt 0.6179 0.0097 0.0000
vt 0.6446 0.0097 0.0000
vt 0.6446 0.5463 0.0000
vt 0.6179 0.5463 0.0000
vt 0.8206 0.8199 0.0000
vt 0.8206 0.7930 0.0000
vt 0.8782 0.7930 0.0000
vt 0.8782 0.8199 0.0000
vt 0.8206 0.7607 0.0000
vt 0.8782 0.7607 0.0000
vt 0.8782 0.7876 0.0000
vt 0.8206 0.7876 0.0000
vt 0.0005 0.0144 0.0000
vt 0.0576 0.0051 0.0000
vt 0.0576 0.5417 0.0000
vt 0.0005 0.5510 0.0000
vt 0.2401 0.0097 0.0000
vt 0.2668 0.0097 0.0000
vt 0.2668 0.5463 0.0000
vt 0.2401 0.5463 0.0000
vt 0.1802 0.0005 0.0000
vt 0.2373 0.0098 0.0000
vt 0.2373 0.5464 0.0000
vt 0.1802 0.5371 0.0000
vt 0.5902 0.0097 0.0000
vt 0.6169 0.0097 0.0000
vt 0.6169 0.5463 0.0000
vt 0.5902 0.5463 0.0000
vt 0.2162 0.9839 0.0000
vt 0.1710 0.9839 0.0000
vt 0.1710 0.6870 0.0000
vt 0.2162 0.6870 0.0000
vt 0.4684 0.6778 0.0000
vt 0.4684 0.6860 0.0000
vt 0.1710 0.6860 0.0000
vt 0.1710 0.6778 0.0000
vt 0.7238 0.3967 0.0000
vt 0.7690 0.3967 0.0000
vt 0.7690 0.6936 0.0000
vt 0.7238 0.6936 0.0000
vt 0.1710 0.6123 0.0000
vt 0.1710 0.6041 0.0000
vt 0.4684 0.6041 0.0000
vt 0.4684 0.6123 0.0000
vt 0.8796 0.6936 0.0000
vt 0.8344 0.6936 0.0000
vt 0.8344 0.3967 0.0000
vt 0.8796 0.3967 0.0000
vt 0.4684 0.6501 0.0000
vt 0.4684 0.6583 0.0000
vt 0.1710 0.6583 0.0000
vt 0.1710 0.6501 0.0000
vt 0.8897 0.3092 0.0000
vt 0.9349 0.3092 0.0000
vt 0.9349 0.6061 0.0000
vt 0.8897 0.6061 0.0000
vt 0.1710 0.5846 0.0000
vt 0.1710 0.5764 0.0000
vt 0.4684 0.5764 0.0000
vt 0.4684 0.5846 0.0000
vt 0.9902 0.9055 0.0000
vt 0.9450 0.9055 0.0000
vt 0.9450 0.6087 0.0000
vt 0.9902 0.6087 0.0000
vt 0.4684 0.6225 0.0000
vt 0.4684 0.6307 0.0000
vt 0.1710 0.6307 0.0000
vt 0.1710 0.6225 0.0000
vt 0.8897 0.6087 0.0000
vt 0.9349 0.6087 0.0000
vt 0.9349 0.9055 0.0000
vt 0.8897 0.9055 0.0000
vt 0.1710 0.6676 0.0000
vt 0.1710 0.6593 0.0000
vt 0.4684 0.6593 0.0000
vt 0.4684 0.6676 0.0000
vt 0.2715 0.9839 0.0000
vt 0.2263 0.9839 0.0000
vt 0.2263 0.6870 0.0000
vt 0.2715 0.6870 0.0000
vt 0.4684 0.6686 0.0000
vt 0.4684 0.6768 0.0000
vt 0.1710 0.6768 0.0000
vt 0.1710 0.6686 0.0000
vt 0.3921 0.6870 0.0000
vt 0.4373 0.6870 0.0000
vt 0.4373 0.9839 0.0000
vt 0.3921 0.9839 0.0000
vt 0.1710 0.5938 0.0000
vt 0.1710 0.5856 0.0000
vt 0.4684 0.5856 0.0000
vt 0.4684 0.5938 0.0000
vt 0.9902 0.6061 0.0000
vt 0.9450 0.6061 0.0000
vt 0.9450 0.3092 0.0000
vt 0.9902 0.3092 0.0000
vt 0.4684 0.5948 0.0000
vt 0.4684 0.6031 0.0000
vt 0.1710 0.6031 0.0000
vt 0.1710 0.5948 0.0000
vt 0.2815 0.6870 0.0000
vt 0.3267 0.6870 0.0000
vt 0.3267 0.9839 0.0000
vt 0.2815 0.9839 0.0000
vt 0.1710 0.6491 0.0000
vt 0.1710 0.6409 0.0000
vt 0.4684 0.6409 0.0000
vt 0.4684 0.6491 0.0000
vt 0.8243 0.6936 0.0000
vt 0.7791 0.6936 0.0000
vt 0.7791 0.3967 0.0000
vt 0.8243 0.3967 0.0000
vt 0.4684 0.6133 0.0000
vt 0.4684 0.6215 0.0000
vt 0.1710 0.6215 0.0000
vt 0.1710 0.6133 0.0000
vt 0.3368 0.6870 0.0000
vt 0.3820 0.6870 0.0000
vt 0.3820 0.9839 0.0000
vt 0.3368 0.9839 0.0000
vt 0.1710 0.6399 0.0000
vt 0.1710 0.6317 0.0000
vt 0.4684 0.6317 0.0000
vt 0.4684 0.6399 0.0000
vt 0.7056 0.5810 0.0000
vt 0.7158 0.5825 0.0000
vt 0.6787 0.6568 0.0000
vt 0.6686 0.6553 0.0000
vt 0.4898 0.8943 0.0000
vt 0.5269 0.9686 0.0000
vt 0.5167 0.9701 0.0000
vt 0.4797 0.8958 0.0000
vt 0.4482 0.9035 0.0000
vt 0.4535 0.9859 0.0000
vt 0.4481 0.9859 0.0000
vt 0.4428 0.9035 0.0000
vt 0.5396 0.8943 0.0000
vt 0.5498 0.8943 0.0000
vt 0.5498 0.8992 0.0000
vt 0.5396 0.8992 0.0000
vt 0.6547 0.6219 0.0000
vt 0.6600 0.5396 0.0000
vt 0.6654 0.5396 0.0000
vt 0.6601 0.6219 0.0000
vt 0.1167 0.9960 0.0000
vt 0.1065 0.9960 0.0000
vt 0.1065 0.9911 0.0000
vt 0.1167 0.9911 0.0000
vt 0.5073 0.8958 0.0000
vt 0.5174 0.8943 0.0000
vt 0.5545 0.9685 0.0000
vt 0.5443 0.9700 0.0000
vt 0.7157 0.6470 0.0000
vt 0.6787 0.7212 0.0000
vt 0.6686 0.7197 0.0000
vt 0.7056 0.6455 0.0000
vt 0.4537 0.6870 0.0000
vt 0.4528 0.7693 0.0000
vt 0.4474 0.7693 0.0000
vt 0.4483 0.6870 0.0000
vt 0.5349 0.9127 0.0000
vt 0.5452 0.9127 0.0000
vt 0.5452 0.9176 0.0000
vt 0.5349 0.9176 0.0000
vt 0.4483 0.8569 0.0000
vt 0.4474 0.7745 0.0000
vt 0.4528 0.7745 0.0000
vt 0.4537 0.8569 0.0000
vt 0.0844 0.9913 0.0000
vt 0.0742 0.9913 0.0000
vt 0.0742 0.9865 0.0000
vt 0.0844 0.9865 0.0000
vt 0.8782 0.7284 0.0000
vt 0.8782 0.7554 0.0000
vt 0.8206 0.7554 0.0000
vt 0.8206 0.7284 0.0000
vt 0.8093 0.7232 0.0000
vt 0.7515 0.7232 0.0000
vt 0.7515 0.6962 0.0000
vt 0.8093 0.6962 0.0000
vt 0.3553 0.0190 0.0000
vt 0.4124 0.0097 0.0000
vt 0.4124 0.5463 0.0000
vt 0.3553 0.5357 0.0000
vt 0.4152 0.0097 0.0000
vt 0.4418 0.0097 0.0000
vt 0.4418 0.5463 0.0000
vt 0.4152 0.5463 0.0000
vt 0.2954 0.0097 0.0000
vt 0.3525 0.0190 0.0000
vt 0.3525 0.5357 0.0000
vt 0.2954 0.5463 0.0000
vt 0.6732 0.0097 0.0000
vt 0.6999 0.0097 0.0000
vt 0.6999 0.5264 0.0000
vt 0.6732 0.5264 0.0000
vt 0.8091 0.7284 0.0000
vt 0.8091 0.7554 0.0000
vt 0.7515 0.7554 0.0000
vt 0.7515 0.7284 0.0000
vt 0.8784 0.7232 0.0000
vt 0.8206 0.7232 0.0000
vt 0.8206 0.6962 0.0000
vt 0.8784 0.6962 0.0000
vt 0.5303 0.0190 0.0000
vt 0.5875 0.0097 0.0000
vt 0.5875 0.5463 0.0000
vt 0.5303 0.5357 0.0000
vt 0.5027 0.0097 0.0000
vt 0.5294 0.0097 0.0000
vt 0.5294 0.5463 0.0000
vt 0.5027 0.5463 0.0000
vt 0.4428 0.0097 0.0000
vt 0.4999 0.0190 0.0000
vt 0.4999 0.5357 0.0000
vt 0.4428 0.5463 0.0000
vt 0.6455 0.0097 0.0000
vt 0.6722 0.0097 0.0000
vt 0.6722 0.5264 0.0000
vt 0.6455 0.5264 0.0000
vt 0.6009 0.5580 0.0000
vt 0.6093 0.5581 0.0000
vt 0.6071 0.8531 0.0000
vt 0.5987 0.8530 0.0000
vt 0.6217 0.5582 0.0000
vt 0.6194 0.8532 0.0000
vt 0.6301 0.5583 0.0000
vt 0.6279 0.8532 0.0000
vt 0.6386 0.5583 0.0000
vt 0.6363 0.8533 0.0000
vt 0.6509 0.5584 0.0000
vt 0.6486 0.8534 0.0000
vt 0.5925 0.5580 0.0000
vt 0.5902 0.8530 0.0000
vt 0.9765 0.3068 0.0000
vt 0.9681 0.3064 0.0000
vt 0.9827 0.0118 0.0000
vt 0.9911 0.0122 0.0000
vt 0.9557 0.3058 0.0000
vt 0.9703 0.0112 0.0000
vt 0.9473 0.3054 0.0000
vt 0.9619 0.0107 0.0000
vt 0.9389 0.3049 0.0000
vt 0.9535 0.0103 0.0000
vt 0.9266 0.3043 0.0000
vt 0.9412 0.0097 0.0000
vt 0.9849 0.3072 0.0000
vt 0.9995 0.0126 0.0000
vt 0.5410 0.5580 0.0000
vt 0.5495 0.5581 0.0000
vt 0.5472 0.8531 0.0000
vt 0.5388 0.8530 0.0000
vt 0.5618 0.5582 0.0000
vt 0.5595 0.8532 0.0000
vt 0.5702 0.5583 0.0000
vt 0.5680 0.8532 0.0000
vt 0.5787 0.5583 0.0000
vt 0.5764 0.8533 0.0000
vt 0.5910 0.5584 0.0000
vt 0.5887 0.8534 0.0000
vt 0.5326 0.5580 0.0000
vt 0.5303 0.8530 0.0000
vt 0.9166 0.3068 0.0000
vt 0.9082 0.3064 0.0000
vt 0.9228 0.0118 0.0000
vt 0.9312 0.0122 0.0000
vt 0.8958 0.3058 0.0000
vt 0.9104 0.0112 0.0000
vt 0.8874 0.3054 0.0000
vt 0.9020 0.0107 0.0000
vt 0.8790 0.3049 0.0000
vt 0.8936 0.0103 0.0000
vt 0.8667 0.3043 0.0000
vt 0.8813 0.0097 0.0000
vt 0.9250 0.3072 0.0000
vt 0.9396 0.0126 0.0000
vt 0.4811 0.5580 0.0000
vt 0.4896 0.5581 0.0000
vt 0.4873 0.8531 0.0000
vt 0.4789 0.8530 0.0000
vt 0.5019 0.5582 0.0000
vt 0.4996 0.8532 0.0000
vt 0.5103 0.5583 0.0000
vt 0.5081 0.8532 0.0000
vt 0.5188 0.5583 0.0000
vt 0.5165 0.8533 0.0000
vt 0.5311 0.5584 0.0000
vt 0.5289 0.8534 0.0000
vt 0.4727 0.5580 0.0000
vt 0.4704 0.8530 0.0000
vt 0.6308 0.8575 0.0000
vt 0.6360 0.8680 0.0000
vt 0.4757 0.8911 0.0000
vt 0.4704 0.8805 0.0000
vt 0.0196 0.9634 0.0000
vt 0.1799 0.9865 0.0000
vt 0.1747 0.9971 0.0000
vt 0.0143 0.9740 0.0000
vt 0.8616 0.3925 0.0000
vt 0.7008 0.3925 0.0000
vt 0.7008 0.0097 0.0000
vt 0.8616 0.0097 0.0000
vt 0.4064 0.5488 0.0000
vt 0.4064 0.5594 0.0000
vt 0.0235 0.5594 0.0000
vt 0.0235 0.5488 0.0000
vt 0.0005 0.5764 0.0000
vt 0.1613 0.5764 0.0000
vt 0.1613 0.9592 0.0000
vt 0.0005 0.9592 0.0000
vt 0.0005 0.5732 0.0000
vt 0.0005 0.5626 0.0000
vt 0.3834 0.5626 0.0000
vt 0.3834 0.5732 0.0000
vt 0.7056 0.6133 0.0000
vt 0.7157 0.6147 0.0000
vt 0.6787 0.6889 0.0000
vt 0.6686 0.6875 0.0000
vt 0.5036 0.8943 0.0000
vt 0.5406 0.9685 0.0000
vt 0.5305 0.9700 0.0000
vt 0.4935 0.8958 0.0000
vt 0.7078 0.4059 0.0000
vt 0.7062 0.4883 0.0000
vt 0.7008 0.4883 0.0000
vt 0.7024 0.4059 0.0000
vt 0.7008 0.4981 0.0000
vt 0.7110 0.4981 0.0000
vt 0.7110 0.5030 0.0000
vt 0.7008 0.5030 0.0000
vt 0.7116 0.4883 0.0000
vt 0.7100 0.4059 0.0000
vt 0.7154 0.4059 0.0000
vt 0.7170 0.4883 0.0000
vt 0.5359 0.8992 0.0000
vt 0.5257 0.8992 0.0000
vt 0.5257 0.8943 0.0000
vt 0.5359 0.8943 0.0000
vt 0.4474 0.8635 0.0000
vt 0.4576 0.8621 0.0000
vt 0.4947 0.9365 0.0000
vt 0.4845 0.9379 0.0000
vt 0.7205 0.5410 0.0000
vt 0.6833 0.6154 0.0000
vt 0.6732 0.6139 0.0000
vt 0.7103 0.5396 0.0000
vt 0.6767 0.5396 0.0000
vt 0.6693 0.6219 0.0000
vt 0.6639 0.6219 0.0000
vt 0.6713 0.5396 0.0000
vt 0.0420 0.9818 0.0000
vt 0.0522 0.9818 0.0000
vt 0.0522 0.9867 0.0000
vt 0.0420 0.9867 0.0000
vt 0.4594 0.9858 0.0000
vt 0.4520 0.9035 0.0000
vt 0.4574 0.9035 0.0000
vt 0.4647 0.9858 0.0000
vt 0.7110 0.5214 0.0000
vt 0.7008 0.5214 0.0000
vt 0.7008 0.5165 0.0000
vt 0.7110 0.5165 0.0000
# 382 texture coords

o Box009
g Box009
s 1
f 1/1/1 2/2/1 3/3/1 4/4/1 
f 5/5/2 6/6/3 7/7/3 8/8/2 
s 2
f 1/9/4 4/10/4 6/11/4 5/12/4 
s 4
f 4/13/5 3/14/5 7/15/6 6/16/6 
s 2
f 3/17/7 2/18/7 8/19/7 7/20/7 
s 4
f 2/21/8 1/22/8 5/23/9 8/24/9 
s 1
f 9/25/1 10/26/1 11/27/1 12/28/1 
f 13/29/2 14/30/3 15/31/3 16/32/2 
s 2
f 9/33/4 12/34/4 14/35/4 13/36/4 
s 4
f 12/37/5 11/38/5 15/39/6 14/40/6 
s 2
f 11/41/7 10/42/7 16/43/7 15/44/7 
s 4
f 10/45/8 9/46/8 13/47/9 16/48/9 
s 1
f 17/49/10 18/50/11 19/51/10 20/52/10 
s 2
f 18/53/12 21/54/13 22/55/13 19/56/12 
s 1
f 21/57/14 23/58/15 24/59/15 22/60/14 
s 2
f 23/61/16 17/62/16 20/63/16 24/64/16 
s 1
f 25/65/17 26/66/10 27/67/10 28/68/11 
s 2
f 26/69/13 29/70/12 30/71/13 27/72/13 
s 1
f 29/73/15 31/74/14 32/75/14 30/76/15 
s 2
f 31/77/16 25/78/16 28/79/16 32/80/16 
s 1
f 33/81/11 34/82/17 35/83/11 36/84/11 
s 2
f 34/85/12 37/86/13 38/87/13 35/88/12 
s 1
f 37/89/14 39/90/18 40/91/18 38/92/18 
s 2
f 39/93/16 33/94/19 36/95/19 40/96/19 
s 1
f 41/97/20 42/98/17 43/99/17 44/100/17 
s 2
f 42/101/13 45/102/21 46/103/21 43/104/13 
s 1
f 45/105/14 47/106/18 48/107/22 46/108/14 
s 2
f 47/109/16 41/110/23 44/111/23 48/112/16 
s 1
f 49/113/24 50/114/25 51/115/24 52/116/24 
s 2
f 50/117/13 53/118/21 54/119/21 51/120/13 
s 1
f 53/121/26 55/122/27 56/123/28 54/124/26 
s 2
f 55/125/29 49/126/29 52/127/29 56/128/16 
s 1
f 57/129/24 58/130/24 59/131/30 60/132/30 
s 2
f 58/133/13 61/134/31 62/135/31 59/136/31 
s 1
f 61/137/18 63/138/18 64/139/32 62/140/18 
s 2
f 63/141/33 57/142/33 60/143/34 64/144/34 
s 1
f 65/145/35 66/146/35 67/147/35 68/148/35 
f 69/149/36 70/150/37 71/151/37 72/152/36 
s 2
f 65/153/17 68/154/11 70/155/11 69/156/17 
s 4
f 68/157/13 67/158/12 71/159/12 70/160/13 
s 2
f 67/161/38 66/162/14 72/163/14 71/164/38 
s 4
f 66/165/19 65/166/19 69/167/19 72/168/19 
s 1
f 73/169/39 74/170/40 75/171/41 76/172/42 
f 77/173/43 78/174/44 79/175/45 80/176/46 
s 2
f 73/177/47 76/178/14 78/179/14 77/180/47 
s 4
f 76/181/16 75/182/19 79/183/19 78/184/16 
s 2
f 75/185/11 74/186/17 80/187/17 79/188/11 
s 4
f 74/189/12 73/190/13 77/191/13 80/192/12 
s 1
f 81/193/48 82/194/48 83/195/49 84/196/49 
f 85/197/50 86/198/51 87/199/51 88/200/50 
s 2
f 81/201/7 84/202/7 86/203/7 85/204/7 
s 4
f 84/205/52 83/206/52 87/207/53 86/208/53 
s 2
f 83/209/4 82/210/4 88/211/4 87/212/4 
s 4
f 82/213/54 81/214/54 85/215/55 88/216/55 
s 1
f 89/217/48 90/218/48 91/219/48 92/220/48 
f 93/221/56 94/222/51 95/223/51 96/224/56 
s 2
f 89/225/7 92/226/7 94/227/7 93/228/7 
s 4
f 92/229/52 91/230/52 95/231/53 94/232/53 
s 2
f 91/233/4 90/234/4 96/235/4 95/236/4 
s 4
f 90/237/57 89/238/57 93/239/55 96/240/55 
s 1
f 97/241/58 98/242/59 99/243/59 100/244/58 
s 2
f 98/242/59 101/245/60 102/246/60 99/243/59 
s 1
f 101/245/60 103/247/61 104/248/61 102/246/60 
s 2
f 103/247/61 105/249/62 106/250/62 104/248/61 
s 1
f 105/249/62 107/251/63 108/252/64 106/250/62 
s 2
f 107/253/63 97/241/58 100/244/58 108/254/64 
s 1
f 109/255/65 110/256/59 111/257/59 112/258/65 
s 2
f 110/256/59 113/259/60 114/260/60 111/257/59 
s 1
f 113/259/60 115/261/66 116/262/66 114/260/60 
s 2
f 115/261/66 117/263/62 118/264/62 116/262/66 
s 1
f 117/263/62 119/265/67 120/266/68 118/264/62 
s 2
f 119/267/67 109/255/65 112/258/65 120/268/68 
s 1
f 121/269/69 122/270/59 123/271/59 124/272/69 
s 2
f 122/270/59 125/273/70 126/274/71 123/271/59 
s 1
f 125/273/70 127/275/66 128/276/72 126/274/71 
s 2
f 127/275/66 129/277/62 130/278/62 128/276/72 
s 1
f 129/277/62 131/279/73 132/280/74 130/278/62 
s 2
f 131/281/73 121/269/69 124/272/69 132/282/74 
s 1
f 133/283/75 134/284/59 135/285/59 136/286/75 
s 2
f 134/284/59 137/287/71 138/288/71 135/285/59 
s 1
f 137/287/71 139/289/76 140/290/76 138/288/71 
s 2
f 139/289/76 141/291/62 142/292/62 140/290/76 
s 1
f 141/291/62 143/293/73 144/294/73 142/292/62 
s 2
f 143/295/73 133/283/75 136/286/75 144/296/73 
s 1
f 145/297/75 146/298/77 147/299/77 148/300/75 
s 2
f 146/298/77 149/301/78 150/302/78 147/299/77 
s 1
f 149/301/78 151/303/79 152/304/79 150/302/78 
s 2
f 151/303/79 153/305/62 154/306/62 152/304/79 
s 1
f 153/305/62 155/307/74 156/308/74 154/306/62 
s 2
f 155/309/74 145/297/75 148/300/75 156/310/74 
s 1
f 157/311/4 158/312/4 159/313/4 160/314/4 
f 161/315/7 162/316/7 163/317/7 164/318/7 
s 2
f 157/319/11 160/320/17 162/321/17 161/322/11 
s 4
f 160/323/80 159/324/80 163/325/80 162/326/80 
s 2
f 159/327/18 158/328/15 164/329/15 163/330/47 
s 4
f 158/331/81 157/332/19 161/333/82 164/334/81 
s 1
f 165/335/83 166/336/84 167/337/83 168/338/85 
f 169/339/86 170/340/87 171/341/87 172/342/88 
s 2
f 165/343/17 168/344/11 170/345/11 169/346/17 
s 4
f 168/347/13 167/348/12 171/349/12 170/350/13 
s 2
f 167/351/38 166/352/14 172/353/14 171/354/38 
s 4
f 166/355/19 165/356/19 169/357/19 172/358/19 
s 1
f 173/359/89 174/360/89 175/361/90 176/362/90 
f 177/363/91 178/364/92 179/365/93 180/366/94 
s 2
f 173/367/18 176/368/14 178/369/14 177/370/18 
s 4
f 176/371/16 175/372/95 179/373/95 178/374/16 
s 2
f 175/375/11 174/376/17 180/377/17 179/378/96 
s 4
f 174/379/12 173/380/12 177/381/12 180/382/12 
# 108 polygons

